<?xml version="1.0" encoding="UTF-8" standalone="no"?>
<!DOCTYPE svg PUBLIC "-//W3C//DTD SVG 1.1//EN" "http://www.w3.org/Graphics/SVG/1.1/DTD/svg11.dtd">
<svg version="1.1" xmlns="http://www.w3.org/2000/svg" xmlns:xlink="http://www.w3.org/1999/xlink" preserveAspectRatio="xMidYMid meet" viewBox="0 0 1920 1080" width="1920" height="1080"><defs><path d="M212.79 628.44L112.56 628.44L112.56 598.59L-2.5 598.59" id="g3izTzXCuz"></path><path d="M91.72 728.11L54.55 728.11L54.55 704.46L-2.5 704.46" id="dksR5AzYC"></path><path d="M243.2 677.43L226.87 677.43L226.87 657.6L170.56 657.6L170.56 677.43L-2.5 677.43" id="dyJpf2gl9"></path><path d="M1766.82 558.64L1860.97 558.64L1860.97 520.55L1921 520.55" id="ims7cFNJy"></path><path d="M84.96 545.66L70.32 545.66L70.32 569.88L-2.5 569.88" id="eX4Yu3bsD"></path><path d="M31.47 628.44L-2.5 628.44" id="bgT0lIk9n"></path><path d="M1115.98 1042.65L1115.98 1065.99L1095.86 1065.99L1095.86 1100.07" id="h2O6NaxXI"></path><path d="M283.59 25.28L283.59 1.84" id="a31pGof1zk"></path><path d="M1808.08 645.38L1856.21 645.38L1856.21 619.99L1881.6 619.99L1881.6 645.38L1923.64 645.38" id="b2bgQxzdXU"></path><path d="M1709.69 575.56L1737.2 575.56L1737.2 598.31L1921 598.31" id="a1yuulykf4"></path><path d="M1905.8 558.64L1937.26 558.64" id="blQhN0riu"></path><path d="M1822.36 480.88L1869.43 480.88L1869.43 498.86L1921 498.86" id="ahdgvfSB4"></path><path d="M1268.39 1042.65L1268.39 1085.08" id="b14scaGKfR"></path><path d="M743.23 920.7L743.23 987.65L766.84 987.65L766.84 1085.08" id="c1j9nqQwp"></path><path d="M822.26 1048.28L822.26 1085.08" id="b8kKGUKRr"></path><path d="M119.3 65.46L119.3 1.84" id="b1pedMr1ug"></path><path d="M1900.21 778.28L1923.64 778.28" id="c5SXIge4tk"></path><path d="M1860.03 688.51L1886.81 688.51L1886.81 712.61L1921.53 712.61" id="b6eIomkT"></path><path d="M1831.13 743.04L1852.98 743.04L1852.98 755.07L1868.49 755.07L1868.49 743.04L1921.53 743.04" id="a1wUFKRffM"></path><path d="M1002.41 962.48L1002.41 1001.73L1029.57 1001.73L1029.57 1091.06" id="d3x0jfOnnO"></path><path d="M1074.48 1013.05L1074.48 1029.88L1061.95 1029.88L1061.95 1091.06" id="c1sHaUJQF"></path><path d="M1200.01 955.75L1200.01 997.86L1164.94 997.86L1164.94 1085.08" id="aXXllv0sr"></path><path d="M46.19 362.64L22.85 362.64L22.85 382.76L-11.24 382.76" id="agESYpJMI"></path><path d="M40.55 480.25L-11.24 480.25" id="b1NnSclelr"></path><path d="M126.36 476.21L87.11 476.21L87.11 449.05L-2.22 449.05" id="d1fVruk6uv"></path><path d="M531.3 34.71L531.3 1.84" id="a4YrX2D4vw"></path><path d="M206.53 122.52L206.53 39.36L154.19 39.36L154.19 1.84" id="acudA4l4"></path><path d="M75.78 404.14L58.95 404.14L58.95 416.67L-2.22 416.67" id="b51IFj0K2"></path><path d="M503.12 134.06L503.12 73.67L462.86 73.67L462.86 0" id="h4oeCd2IH"></path><path d="M1812.47 366.25L1833.82 366.25L1833.82 395.78L1921.53 395.78" id="cU80xeADw"></path><path d="M380.08 61.5L380.08 34.71L355.99 34.71L355.99 0" id="brNH4h6T"></path><path d="M325.56 90.4L325.56 68.55L313.52 68.55L313.52 53.04L325.56 53.04L325.56 0" id="a3v5Zn42N"></path><path d="M1761.33 313.91L1921.53 313.91" id="i3BKXLtHgp"></path><path d="M1865.86 872.75L1917.13 872.75" id="ajBYjgLBj"></path><path d="M998.38 1048.28L998.38 1100.07" id="c1GFvmyfhb"></path><path d="M157.4 872.65L115.38 872.65L115.38 843.13L-2.22 843.13" id="cS9DO1u99"></path><path d="M955.9 1013.05L955.9 1094.72" id="f2LnMUn3Ju"></path><path d="M1876.08 257.29L1921.53 257.29" id="i6hyZDF0a"></path><path d="M156.15 318.68L105.06 318.68L105.06 286.5L-39.37 287.25" id="abW1VJeyO"></path><path d="M1478.8 41.53L1478.8 18.19L1498.92 18.19L1498.92 -15.9" id="c17XIsPEGu"></path><path d="M1326.39 41.53L1326.39 -0.9" id="ePLoLGVkM"></path><path d="M1851.55 163.48L1851.55 96.53L1827.93 96.53L1827.93 -0.9" id="d1sMuFVvtk"></path><path d="M1772.52 35.89L1772.52 -0.9" id="c44pQ95DJ"></path><path d="M1592.37 121.7L1592.37 82.45L1565.21 82.45L1565.21 -6.88" id="a1tLnudkB8"></path><path d="M1520.29 71.12L1520.29 54.29L1532.83 54.29L1532.83 -6.88" id="d6MFs82HbT"></path><path d="M1394.77 128.43L1394.77 86.32L1429.84 86.32L1429.84 -0.9" id="c7hw1FbmP"></path><path d="M1596.4 35.89L1596.4 -15.9" id="aqD9SCGdW"></path><path d="M1638.88 71.12L1638.88 -10.55" id="a2AsHLREF"></path><path d="M1612.8 875.77L1612.8 976.01L1642.65 976.01L1642.65 1091.06" id="cW3RWVNp7"></path><path d="M1513.13 996.84L1513.13 1034.01L1536.78 1034.01L1536.78 1091.06" id="aEtrwn051"></path><path d="M1563.81 845.36L1563.81 861.69L1583.65 861.69L1583.65 918.01L1563.81 918.01L1563.81 1091.06" id="f2biU8rZXx"></path><path d="M1695.58 1003.6L1695.58 1018.24L1671.37 1018.24L1671.37 1091.06" id="c1Gq7tCRK5"></path><path d="M1612.8 1057.09L1612.8 1091.06" id="b2x5YmC1Z6"></path><path d="M338.91 979.15L338.91 1027.28L313.52 1027.28L313.52 1052.67L338.91 1052.67L338.91 1094.71" id="hiHA0sykE"></path><path d="M471.81 1071.28L471.81 1094.71" id="b39jWHpVNk"></path><path d="M382.04 1031.1L382.04 1057.88L406.14 1057.88L406.14 1092.6" id="i1mxHbdYIF"></path><path d="M436.57 1002.2L436.57 1024.05L448.6 1024.05L448.6 1039.56L436.57 1039.56L436.57 1092.6" id="a6gU4tiTb"></path><path d="M566.28 1036.93L566.28 1088.2" id="a3i854HOm8"></path><path d="" id="jrVwqv8wR"></path><path d="" id="l422bDQ9ob"></path><path d="M113.12 545.66C113.12 553.43 106.81 559.74 99.04 559.74C91.27 559.74 84.96 553.43 84.96 545.66C84.96 537.89 91.27 531.58 99.04 531.58C106.81 531.58 113.12 537.89 113.12 545.66Z" id="bv7F4uDCQ"></path><path d="M58.69 628.44C58.69 636.21 52.38 642.52 44.61 642.52C36.84 642.52 30.53 636.21 30.53 628.44C30.53 620.67 36.84 614.36 44.61 614.36C52.38 614.36 58.69 620.67 58.69 628.44Z" id="fBalPqfx3"></path><path d="M269.1 677.43C269.1 685.2 262.79 691.51 255.02 691.51C247.25 691.51 240.95 685.2 240.95 677.43C240.95 669.66 247.25 663.35 255.02 663.35C262.79 663.35 269.1 669.66 269.1 677.43Z" id="c2cR7rt7R"></path><path d="M240.95 628.44C240.95 636.21 234.64 642.52 226.87 642.52C219.1 642.52 212.79 636.21 212.79 628.44C212.79 620.67 219.1 614.36 226.87 614.36C234.64 614.36 240.95 620.67 240.95 628.44Z" id="l17p7NnzSK"></path><path d="M1709.69 575.56C1709.69 567.79 1703.38 561.48 1695.61 561.48C1687.84 561.48 1681.53 567.79 1681.53 575.56C1681.53 583.33 1687.84 589.64 1695.61 589.64C1703.38 589.64 1709.69 583.33 1709.69 575.56Z" id="c7vexQhjf"></path><path d="M1785.09 558.64C1785.09 566.4 1778.78 572.71 1771.01 572.71C1763.24 572.71 1756.93 566.4 1756.93 558.64C1756.93 550.87 1763.24 544.56 1771.01 544.56C1778.78 544.56 1785.09 550.87 1785.09 558.64Z" id="c7RBnPTsfT"></path><path d="M1905.27 558.64C1905.27 566.4 1898.96 572.71 1891.19 572.71C1883.42 572.71 1877.11 566.4 1877.11 558.64C1877.11 550.87 1883.42 544.56 1891.19 544.56C1898.96 544.56 1905.27 550.87 1905.27 558.64Z" id="c1Z8aK2n83"></path><path d="M1288.65 1023.14C1288.65 1034.32 1279.57 1043.4 1268.39 1043.4C1257.21 1043.4 1248.13 1034.32 1248.13 1023.14C1248.13 1011.96 1257.21 1002.89 1268.39 1002.89C1279.57 1002.89 1288.65 1011.96 1288.65 1023.14Z" id="a14u4xTBDP"></path><path d="M1022.67 942.22C1022.67 953.4 1013.59 962.48 1002.41 962.48C991.23 962.48 982.15 953.4 982.15 942.22C982.15 931.04 991.23 921.97 1002.41 921.97C1013.59 921.97 1022.67 931.04 1022.67 942.22Z" id="d17cxrgqRo"></path><path d="M523.51 153.31C523.51 164.49 514.43 173.57 503.25 173.57C492.07 173.57 482.99 164.49 482.99 153.31C482.99 142.13 492.07 133.05 503.25 133.05C514.43 133.05 523.51 142.13 523.51 153.31Z" id="a1v2K0zNER"></path><path d="M551.56 53.43C551.56 64.61 542.48 73.69 531.3 73.69C520.12 73.69 511.05 64.61 511.05 53.43C511.05 42.25 520.12 33.18 531.3 33.18C542.48 33.18 551.56 42.25 551.56 53.43Z" id="b1iricwDi"></path><path d="M226.79 142.77C226.79 153.96 217.71 163.03 206.53 163.03C195.35 163.03 186.27 153.96 186.27 142.77C186.27 131.59 195.35 122.52 206.53 122.52C217.71 122.52 226.79 131.59 226.79 142.77Z" id="bOR20Eqey"></path><path d="M593.37 -251.84C593.37 -236.96 581.3 -224.89 566.42 -224.89C551.54 -224.89 539.46 -236.96 539.46 -251.84C539.46 -266.72 551.54 -278.8 566.42 -278.8C581.3 -278.8 593.37 -266.72 593.37 -251.84Z" id="d4KEMUDUgi"></path><path d="M139.56 79.54C139.56 90.72 130.48 99.79 119.3 99.79C108.12 99.79 99.04 90.72 99.04 79.54C99.04 68.36 108.12 59.28 119.3 59.28C130.48 59.28 139.56 68.36 139.56 79.54Z" id="beZh97Dy6"></path><path d="M763.61 930.87C763.61 942.05 754.54 951.12 743.36 951.12C732.18 951.12 723.1 942.05 723.1 930.87C723.1 919.69 732.18 910.61 743.36 910.61C754.54 910.61 763.61 919.69 763.61 930.87Z" id="c1L3810o5C"></path><path d="M842.52 1037.3C842.52 1048.48 833.44 1057.56 822.26 1057.56C811.08 1057.56 802 1048.48 802 1037.3C802 1026.12 811.08 1017.04 822.26 1017.04C833.44 1017.04 842.52 1026.12 842.52 1037.3Z" id="bEbcQr9MC"></path><path d="M1220.27 935.49C1220.27 946.67 1211.19 955.75 1200.01 955.75C1188.83 955.75 1179.75 946.67 1179.75 935.49C1179.75 924.31 1188.83 915.23 1200.01 915.23C1211.19 915.23 1220.27 924.31 1220.27 935.49Z" id="b6TEe8Yr2F"></path><path d="M1886.13 763.56C1878.36 763.56 1872.05 769.87 1872.05 777.64C1872.05 785.41 1878.36 791.72 1886.13 791.72C1893.9 791.72 1900.21 785.41 1900.21 777.64C1900.21 769.87 1893.9 763.56 1886.13 763.56Z" id="b2DVbh1SzD"></path><path d="M1817.05 728.96C1809.28 728.96 1802.97 735.27 1802.97 743.04C1802.97 750.81 1809.28 757.12 1817.05 757.12C1824.82 757.12 1831.13 750.81 1831.13 743.04C1831.13 735.27 1824.82 728.96 1817.05 728.96Z" id="c1KwCrCOD"></path><path d="M1088.56 1001.73C1088.56 1009.5 1082.25 1015.81 1074.48 1015.81C1066.71 1015.81 1060.41 1009.5 1060.41 1001.73C1060.41 993.96 1066.71 987.65 1074.48 987.65C1082.25 987.65 1088.56 993.96 1088.56 1001.73Z" id="e59qIQTDcD"></path><path d="M1845.95 674.43C1838.18 674.43 1831.87 680.74 1831.87 688.51C1831.87 696.28 1838.18 702.59 1845.95 702.59C1853.72 702.59 1860.03 696.28 1860.03 688.51C1860.03 680.74 1853.72 674.43 1845.95 674.43Z" id="b19tU7jRzL"></path><path d="M37.46 466.17C29.69 466.17 23.38 472.48 23.38 480.25C23.38 488.01 29.69 494.32 37.46 494.32C45.23 494.32 51.54 488.01 51.54 480.25C51.54 472.48 45.23 466.17 37.46 466.17Z" id="b3wPahfdHj"></path><path d="M53.6 348.56C45.83 348.56 39.52 354.87 39.52 362.64C39.52 370.41 45.83 376.72 53.6 376.72C61.37 376.72 67.68 370.41 67.68 362.64C67.68 354.87 61.37 348.56 53.6 348.56Z" id="btuAVRG0H"></path><path d="M87.11 390.06C79.34 390.06 73.03 396.37 73.03 404.14C73.03 411.91 79.34 418.22 87.11 418.22C94.88 418.22 101.19 411.91 101.19 404.14C101.19 396.37 94.88 390.06 87.11 390.06Z" id="c2iEla3cU3"></path><path d="M394.16 75.58C394.16 83.35 387.85 89.66 380.08 89.66C372.31 89.66 366.01 83.35 366.01 75.58C366.01 67.81 372.31 61.5 380.08 61.5C387.85 61.5 394.16 67.81 394.16 75.58Z" id="aDD3AL64L"></path><path d="M297.67 39.36C297.67 47.13 291.36 53.43 283.59 53.43C275.82 53.43 269.52 47.13 269.52 39.36C269.52 31.59 275.82 25.28 283.59 25.28C291.36 25.28 297.67 31.59 297.67 39.36Z" id="a2gz3qBsUH"></path><path d="M339.63 104.48C339.63 112.25 333.33 118.56 325.56 118.56C317.79 118.56 311.48 112.25 311.48 104.48C311.48 96.71 317.79 90.4 325.56 90.4C333.33 90.4 339.63 96.71 339.63 104.48Z" id="c2zZA1BcUB"></path><path d="M969.98 1001.73C969.98 1009.5 963.67 1015.81 955.9 1015.81C948.13 1015.81 941.82 1009.5 941.82 1001.73C941.82 993.96 948.13 987.65 955.9 987.65C963.67 987.65 969.98 993.96 969.98 1001.73Z" id="e9UTnLEkYz"></path><path d="M1012.46 1051.38C1012.46 1059.15 1006.15 1065.46 998.38 1065.46C990.61 1065.46 984.3 1059.15 984.3 1051.38C984.3 1043.61 990.61 1037.3 998.38 1037.3C1006.15 1037.3 1012.46 1043.61 1012.46 1051.38Z" id="b2gxd5CmP"></path><path d="M1130.06 1035.24C1130.06 1043 1123.75 1049.31 1115.98 1049.31C1108.21 1049.31 1101.9 1043 1101.9 1035.24C1101.9 1027.47 1108.21 1021.16 1115.98 1021.16C1123.75 1021.16 1130.06 1027.47 1130.06 1035.24Z" id="dU6VAv8pR"></path><path d="M1775.41 318.32C1775.41 329.5 1766.33 338.58 1755.15 338.58C1743.97 338.58 1734.89 329.5 1734.89 318.32C1734.89 307.14 1743.97 298.06 1755.15 298.06C1766.33 298.06 1775.41 307.14 1775.41 318.32Z" id="c9EFSeZnTc"></path><path d="M1880.72 257.29C1880.72 268.47 1871.65 277.55 1860.47 277.55C1849.29 277.55 1840.21 268.47 1840.21 257.29C1840.21 246.11 1849.29 237.03 1860.47 237.03C1871.65 237.03 1880.72 246.11 1880.72 257.29Z" id="c1aIFIAVNb"></path><path d="M1818.65 366.64C1818.65 377.82 1809.58 386.9 1798.4 386.9C1787.22 386.9 1778.14 377.82 1778.14 366.64C1778.14 355.46 1787.22 346.39 1798.4 346.39C1809.58 346.39 1818.65 355.46 1818.65 366.64Z" id="e6FB18g7po"></path><path d="M193.3 872.65C193.3 883.83 184.22 892.91 173.04 892.91C161.86 892.91 152.78 883.83 152.78 872.65C152.78 861.47 161.86 852.4 173.04 852.4C184.22 852.4 193.3 861.47 193.3 872.65Z" id="dzeOUIulz"></path><path d="M1880.29 873.99C1880.29 885.17 1871.21 894.24 1860.03 894.24C1848.85 894.24 1839.77 885.17 1839.77 873.99C1839.77 862.81 1848.85 853.73 1860.03 853.73C1871.21 853.73 1880.29 862.81 1880.29 873.99Z" id="bymDJMIkf"></path><path d="M190.93 318.68C190.93 307.5 181.86 298.43 170.68 298.43C159.5 298.43 150.42 307.5 150.42 318.68C150.42 329.86 159.5 338.94 170.68 338.94C181.86 338.94 190.93 329.86 190.93 318.68Z" id="b8wjDScGBy"></path><path d="M162.37 476.21C162.37 487.39 153.29 496.47 142.11 496.47C130.93 496.47 121.85 487.39 121.85 476.21C121.85 465.03 130.93 455.95 142.11 455.95C153.29 455.95 162.37 465.03 162.37 476.21Z" id="d5nYEAa60l"></path><path d="M121.85 728.11C121.85 739.29 112.78 748.37 101.6 748.37C90.42 748.37 81.34 739.29 81.34 728.11C81.34 716.93 90.42 707.85 101.6 707.85C112.78 707.85 121.85 716.93 121.85 728.11Z" id="b8EVZsdF2"></path><path d="M1834.51 480.88C1834.51 492.06 1825.44 501.14 1814.26 501.14C1803.08 501.14 1794 492.06 1794 480.88C1794 469.7 1803.08 460.62 1814.26 460.62C1825.44 460.62 1834.51 469.7 1834.51 480.88Z" id="cDfxR1Z"></path><path d="M1817.05 644.87C1817.05 656.05 1807.97 665.13 1796.79 665.13C1785.61 665.13 1776.53 656.05 1776.53 644.87C1776.53 633.69 1785.61 624.61 1796.79 624.61C1807.97 624.61 1817.05 633.69 1817.05 644.87Z" id="bcbt2TGAA"></path><path d="M1306.13 61.03C1306.13 49.85 1315.21 40.78 1326.39 40.78C1337.57 40.78 1346.65 49.85 1346.65 61.03C1346.65 72.21 1337.57 81.29 1326.39 81.29C1315.21 81.29 1306.13 72.21 1306.13 61.03Z" id="g1IfwOtKP"></path><path d="M1572.11 141.95C1572.11 130.77 1581.19 121.7 1592.37 121.7C1603.55 121.7 1612.62 130.77 1612.62 141.95C1612.62 153.13 1603.55 162.21 1592.37 162.21C1581.19 162.21 1572.11 153.13 1572.11 141.95Z" id="goBsgoxBg"></path><path d="M1831.16 153.31C1831.16 142.13 1840.24 133.05 1851.42 133.05C1862.6 133.05 1871.68 142.13 1871.68 153.31C1871.68 164.49 1862.6 173.57 1851.42 173.57C1840.24 173.57 1831.16 164.49 1831.16 153.31Z" id="dErDOLhf6"></path><path d="M1752.26 46.88C1752.26 35.7 1761.34 26.62 1772.52 26.62C1783.7 26.62 1792.78 35.7 1792.78 46.88C1792.78 58.06 1783.7 67.13 1772.52 67.13C1761.34 67.13 1752.26 58.06 1752.26 46.88Z" id="aCgGm8P28"></path><path d="M1374.51 148.69C1374.51 137.51 1383.59 128.43 1394.77 128.43C1405.95 128.43 1415.03 137.51 1415.03 148.69C1415.03 159.87 1405.95 168.95 1394.77 168.95C1383.59 168.95 1374.51 159.87 1374.51 148.69Z" id="a8SD44j5m"></path><path d="M1506.22 82.45C1506.22 74.68 1512.52 68.37 1520.29 68.37C1528.06 68.37 1534.37 74.68 1534.37 82.45C1534.37 90.22 1528.06 96.53 1520.29 96.53C1512.52 96.53 1506.22 90.22 1506.22 82.45Z" id="ca6TM2M47"></path><path d="M1624.8 82.45C1624.8 74.68 1631.11 68.37 1638.88 68.37C1646.65 68.37 1652.96 74.68 1652.96 82.45C1652.96 90.22 1646.65 96.53 1638.88 96.53C1631.11 96.53 1624.8 90.22 1624.8 82.45Z" id="c1yDjA6NW"></path><path d="M1582.32 32.8C1582.32 25.03 1588.63 18.72 1596.4 18.72C1604.17 18.72 1610.48 25.03 1610.48 32.8C1610.48 40.57 1604.17 46.88 1596.4 46.88C1588.63 46.88 1582.32 40.57 1582.32 32.8Z" id="b4b0YP8VCN"></path><path d="M1464.72 48.94C1464.72 41.17 1471.03 34.86 1478.8 34.86C1486.57 34.86 1492.87 41.17 1492.87 48.94C1492.87 56.71 1486.57 63.02 1478.8 63.02C1471.03 63.02 1464.72 56.71 1464.72 48.94Z" id="a3BKePAh51"></path><path d="M1695.58 975.44C1687.81 975.44 1681.5 981.75 1681.5 989.52C1681.5 997.29 1687.81 1003.6 1695.58 1003.6C1703.35 1003.6 1709.66 997.29 1709.66 989.52C1709.66 981.75 1703.35 975.44 1695.58 975.44Z" id="bhEo8LDGE"></path><path d="M1612.8 1029.87C1605.03 1029.87 1598.73 1036.18 1598.73 1043.95C1598.73 1051.72 1605.03 1058.03 1612.8 1058.03C1620.57 1058.03 1626.88 1051.72 1626.88 1043.95C1626.88 1036.18 1620.57 1029.87 1612.8 1029.87Z" id="acbOrGcxF"></path><path d="M1563.81 819.46C1556.04 819.46 1549.74 825.77 1549.74 833.54C1549.74 841.31 1556.04 847.62 1563.81 847.62C1571.58 847.62 1577.89 841.31 1577.89 833.54C1577.89 825.77 1571.58 819.46 1563.81 819.46Z" id="bErQnauG"></path><path d="M1612.8 847.62C1605.03 847.62 1598.73 853.92 1598.73 861.69C1598.73 869.46 1605.03 875.77 1612.8 875.77C1620.57 875.77 1626.88 869.46 1626.88 861.69C1626.88 853.92 1620.57 847.62 1612.8 847.62Z" id="a3M1odOFAq"></path><path d="M1513.13 966.71C1501.95 966.71 1492.87 975.78 1492.87 986.96C1492.87 998.15 1501.95 1007.22 1513.13 1007.22C1524.31 1007.22 1533.39 998.15 1533.39 986.96C1533.39 975.78 1524.31 966.71 1513.13 966.71Z" id="a32Hg0Qy7"></path><path d="M457.09 1057.2C457.09 1049.43 463.4 1043.12 471.17 1043.12C478.94 1043.12 485.25 1049.43 485.25 1057.2C485.25 1064.97 478.94 1071.28 471.17 1071.28C463.4 1071.28 457.09 1064.97 457.09 1057.2Z" id="bqsNXiaIn"></path><path d="M422.49 988.12C422.49 980.35 428.8 974.04 436.57 974.04C444.34 974.04 450.64 980.35 450.64 988.12C450.64 995.89 444.34 1002.2 436.57 1002.2C428.8 1002.2 422.49 995.89 422.49 988.12Z" id="a3Kfw5UilC"></path><path d="M367.96 1017.02C367.96 1009.25 374.27 1002.94 382.04 1002.94C389.81 1002.94 396.12 1009.25 396.12 1017.02C396.12 1024.79 389.81 1031.1 382.04 1031.1C374.27 1031.1 367.96 1024.79 367.96 1017.02Z" id="a4I8KxoCS"></path><path d="M567.52 1051.36C578.7 1051.36 587.77 1042.28 587.77 1031.1C587.77 1019.92 578.7 1010.84 567.52 1010.84C556.34 1010.84 547.26 1019.92 547.26 1031.1C547.26 1042.28 556.34 1051.36 567.52 1051.36Z" id="a13JzTLgyM"></path><path d="M338.4 988.12C349.58 988.12 358.66 979.04 358.66 967.86C358.66 956.68 349.58 947.6 338.4 947.6C327.22 947.6 318.14 956.68 318.14 967.86C318.14 979.04 327.22 988.12 338.4 988.12Z" id="e26PNjTVIM"></path></defs><g><g><g><g><g><use xlink:href="#g3izTzXCuz" opacity="1" fill-opacity="0" stroke="#5dfc0a" stroke-width="6" stroke-opacity="1"></use></g></g><g><g><use xlink:href="#dksR5AzYC" opacity="1" fill-opacity="0" stroke="#5dfc0a" stroke-width="6" stroke-opacity="1"></use></g></g><g><g><use xlink:href="#dyJpf2gl9" opacity="1" fill-opacity="0" stroke="#5dfc0a" stroke-width="6" stroke-opacity="1"></use></g></g><g><g><use xlink:href="#ims7cFNJy" opacity="1" fill-opacity="0" stroke="#5dfc0a" stroke-width="6" stroke-opacity="1"></use></g></g><g><g><use xlink:href="#eX4Yu3bsD" opacity="1" fill-opacity="0" stroke="#5dfc0a" stroke-width="6" stroke-opacity="1"></use></g></g><g><g><use xlink:href="#bgT0lIk9n" opacity="1" fill-opacity="0" stroke="#5dfc0a" stroke-width="6" stroke-opacity="1"></use></g></g><g><g><use xlink:href="#h2O6NaxXI" opacity="1" fill-opacity="0" stroke="#5dfc0a" stroke-width="6" stroke-opacity="1"></use></g></g><g><g><use xlink:href="#a31pGof1zk" opacity="1" fill-opacity="0" stroke="#5dfc0a" stroke-width="6" stroke-opacity="1"></use></g></g><g><g><use xlink:href="#b2bgQxzdXU" opacity="1" fill-opacity="0" stroke="#5dfc0a" stroke-width="6" stroke-opacity="1"></use></g></g><g><g><use xlink:href="#a1yuulykf4" opacity="1" fill-opacity="0" stroke="#5dfc0a" stroke-width="6" stroke-opacity="1"></use></g></g><g><g><use xlink:href="#blQhN0riu" opacity="1" fill-opacity="0" stroke="#5dfc0a" stroke-width="6" stroke-opacity="1"></use></g></g><g><g><use xlink:href="#ahdgvfSB4" opacity="1" fill-opacity="0" stroke="#5dfc0a" stroke-width="6" stroke-opacity="1"></use></g></g><g><g><use xlink:href="#b14scaGKfR" opacity="1" fill-opacity="0" stroke="#5dfc0a" stroke-width="6" stroke-opacity="1"></use></g></g><g><g><use xlink:href="#c1j9nqQwp" opacity="1" fill-opacity="0" stroke="#5dfc0a" stroke-width="6" stroke-opacity="1"></use></g></g><g><g><use xlink:href="#b8kKGUKRr" opacity="1" fill-opacity="0" stroke="#5dfc0a" stroke-width="6" stroke-opacity="1"></use></g></g><g><g><use xlink:href="#b1pedMr1ug" opacity="1" fill-opacity="0" stroke="#5dfc0a" stroke-width="6" stroke-opacity="1"></use></g></g><g><g><use xlink:href="#c5SXIge4tk" opacity="1" fill-opacity="0" stroke="#5dfc0a" stroke-width="6" stroke-opacity="1"></use></g></g><g><g><use xlink:href="#b6eIomkT" opacity="1" fill-opacity="0" stroke="#5dfc0a" stroke-width="6" stroke-opacity="1"></use></g></g><g><g><use xlink:href="#a1wUFKRffM" opacity="1" fill-opacity="0" stroke="#5dfc0a" stroke-width="6" stroke-opacity="1"></use></g></g><g><g><use xlink:href="#d3x0jfOnnO" opacity="1" fill-opacity="0" stroke="#5dfc0a" stroke-width="6" stroke-opacity="1"></use></g></g><g><g><use xlink:href="#c1sHaUJQF" opacity="1" fill-opacity="0" stroke="#5dfc0a" stroke-width="6" stroke-opacity="1"></use></g></g><g><g><use xlink:href="#aXXllv0sr" opacity="1" fill-opacity="0" stroke="#5dfc0a" stroke-width="6" stroke-opacity="1"></use></g></g><g><g><use xlink:href="#agESYpJMI" opacity="1" fill-opacity="0" stroke="#5dfc0a" stroke-width="6" stroke-opacity="1"></use></g></g><g><g><use xlink:href="#b1NnSclelr" opacity="1" fill-opacity="0" stroke="#5dfc0a" stroke-width="6" stroke-opacity="1"></use></g></g><g><g><use xlink:href="#d1fVruk6uv" opacity="1" fill-opacity="0" stroke="#5dfc0a" stroke-width="6" stroke-opacity="1"></use></g></g><g><g><use xlink:href="#a4YrX2D4vw" opacity="1" fill-opacity="0" stroke="#5dfc0a" stroke-width="6" stroke-opacity="1"></use></g></g><g><g><use xlink:href="#acudA4l4" opacity="1" fill-opacity="0" stroke="#5dfc0a" stroke-width="6" stroke-opacity="1"></use></g></g><g><g><use xlink:href="#b51IFj0K2" opacity="1" fill-opacity="0" stroke="#5dfc0a" stroke-width="6" stroke-opacity="1"></use></g></g><g><g><use xlink:href="#h4oeCd2IH" opacity="1" fill-opacity="0" stroke="#5dfc0a" stroke-width="6" stroke-opacity="1"></use></g></g><g><g><use xlink:href="#cU80xeADw" opacity="1" fill-opacity="0" stroke="#5dfc0a" stroke-width="6" stroke-opacity="1"></use></g></g><g><g><use xlink:href="#brNH4h6T" opacity="1" fill-opacity="0" stroke="#5dfc0a" stroke-width="6" stroke-opacity="1"></use></g></g><g><g><use xlink:href="#a3v5Zn42N" opacity="1" fill-opacity="0" stroke="#5dfc0a" stroke-width="6" stroke-opacity="1"></use></g></g><g><g><use xlink:href="#i3BKXLtHgp" opacity="1" fill-opacity="0" stroke="#5dfc0a" stroke-width="6" stroke-opacity="1"></use></g></g><g><g><use xlink:href="#ajBYjgLBj" opacity="1" fill-opacity="0" stroke="#5dfc0a" stroke-width="6" stroke-opacity="1"></use></g></g><g><g><use xlink:href="#c1GFvmyfhb" opacity="1" fill-opacity="0" stroke="#5dfc0a" stroke-width="6" stroke-opacity="1"></use></g></g><g><g><use xlink:href="#cS9DO1u99" opacity="1" fill-opacity="0" stroke="#5dfc0a" stroke-width="6" stroke-opacity="1"></use></g></g><g><g><use xlink:href="#f2LnMUn3Ju" opacity="1" fill-opacity="0" stroke="#5dfc0a" stroke-width="6" stroke-opacity="1"></use></g></g><g><g><use xlink:href="#i6hyZDF0a" opacity="1" fill-opacity="0" stroke="#5dfc0a" stroke-width="6" stroke-opacity="1"></use></g></g><g><g><use xlink:href="#abW1VJeyO" opacity="1" fill-opacity="0" stroke="#5dfc0a" stroke-width="6" stroke-opacity="1"></use></g></g><g><g><use xlink:href="#c17XIsPEGu" opacity="1" fill-opacity="0" stroke="#5dfc0a" stroke-width="6" stroke-opacity="1"></use></g></g><g><g><use xlink:href="#ePLoLGVkM" opacity="1" fill-opacity="0" stroke="#5dfc0a" stroke-width="6" stroke-opacity="1"></use></g></g><g><g><use xlink:href="#d1sMuFVvtk" opacity="1" fill-opacity="0" stroke="#5dfc0a" stroke-width="6" stroke-opacity="1"></use></g></g><g><g><use xlink:href="#c44pQ95DJ" opacity="1" fill-opacity="0" stroke="#5dfc0a" stroke-width="6" stroke-opacity="1"></use></g></g><g><g><use xlink:href="#a1tLnudkB8" opacity="1" fill-opacity="0" stroke="#5dfc0a" stroke-width="6" stroke-opacity="1"></use></g></g><g><g><use xlink:href="#d6MFs82HbT" opacity="1" fill-opacity="0" stroke="#5dfc0a" stroke-width="6" stroke-opacity="1"></use></g></g><g><g><use xlink:href="#c7hw1FbmP" opacity="1" fill-opacity="0" stroke="#5dfc0a" stroke-width="6" stroke-opacity="1"></use></g></g><g><g><use xlink:href="#aqD9SCGdW" opacity="1" fill-opacity="0" stroke="#5dfc0a" stroke-width="6" stroke-opacity="1"></use></g></g><g><g><use xlink:href="#a2AsHLREF" opacity="1" fill-opacity="0" stroke="#5dfc0a" stroke-width="6" stroke-opacity="1"></use></g></g><g><g><use xlink:href="#cW3RWVNp7" opacity="1" fill-opacity="0" stroke="#5dfc0a" stroke-width="6" stroke-opacity="1"></use></g></g><g><g><use xlink:href="#aEtrwn051" opacity="1" fill-opacity="0" stroke="#5dfc0a" stroke-width="6" stroke-opacity="1"></use></g></g><g><g><use xlink:href="#f2biU8rZXx" opacity="1" fill-opacity="0" stroke="#5dfc0a" stroke-width="6" stroke-opacity="1"></use></g></g><g><g><use xlink:href="#c1Gq7tCRK5" opacity="1" fill-opacity="0" stroke="#5dfc0a" stroke-width="6" stroke-opacity="1"></use></g></g><g><g><use xlink:href="#b2x5YmC1Z6" opacity="1" fill-opacity="0" stroke="#5dfc0a" stroke-width="6" stroke-opacity="1"></use></g></g><g><g><use xlink:href="#hiHA0sykE" opacity="1" fill-opacity="0" stroke="#5dfc0a" stroke-width="6" stroke-opacity="1"></use></g></g><g><g><use xlink:href="#b39jWHpVNk" opacity="1" fill-opacity="0" stroke="#5dfc0a" stroke-width="6" stroke-opacity="1"></use></g></g><g><g><use xlink:href="#i1mxHbdYIF" opacity="1" fill-opacity="0" stroke="#5dfc0a" stroke-width="6" stroke-opacity="1"></use></g></g><g><g><use xlink:href="#a6gU4tiTb" opacity="1" fill-opacity="0" stroke="#5dfc0a" stroke-width="6" stroke-opacity="1"></use></g></g><g><g><use xlink:href="#a3i854HOm8" opacity="1" fill-opacity="0" stroke="#5dfc0a" stroke-width="6" stroke-opacity="1"></use></g></g><g><g><use xlink:href="#jrVwqv8wR" opacity="1" fill-opacity="0" stroke="#5dfc0a" stroke-width="10" stroke-opacity="1"></use></g></g><g><g><use xlink:href="#l422bDQ9ob" opacity="1" fill-opacity="0" stroke="#5dfc0a" stroke-width="10" stroke-opacity="1"></use></g></g></g><g><g><use xlink:href="#bv7F4uDCQ" opacity="1" fill="#000000" fill-opacity="1"></use><g><use xlink:href="#bv7F4uDCQ" opacity="1" fill-opacity="0" stroke="#5dfc0a" stroke-width="6" stroke-opacity="1"></use></g></g><g><use xlink:href="#fBalPqfx3" opacity="1" fill="#000000" fill-opacity="1"></use><g><use xlink:href="#fBalPqfx3" opacity="1" fill-opacity="0" stroke="#5dfc0a" stroke-width="6" stroke-opacity="1"></use></g></g><g><use xlink:href="#c2cR7rt7R" opacity="1" fill="#000000" fill-opacity="1"></use><g><use xlink:href="#c2cR7rt7R" opacity="1" fill-opacity="0" stroke="#5dfc0a" stroke-width="6" stroke-opacity="1"></use></g></g><g><use xlink:href="#l17p7NnzSK" opacity="1" fill="#000000" fill-opacity="1"></use><g><use xlink:href="#l17p7NnzSK" opacity="1" fill-opacity="0" stroke="#5dfc0a" stroke-width="6" stroke-opacity="1"></use></g></g><g><use xlink:href="#c7vexQhjf" opacity="1" fill="#000000" fill-opacity="1"></use><g><use xlink:href="#c7vexQhjf" opacity="1" fill-opacity="0" stroke="#5dfc0a" stroke-width="6" stroke-opacity="1"></use></g></g><g><use xlink:href="#c7RBnPTsfT" opacity="1" fill="#000000" fill-opacity="1"></use><g><use xlink:href="#c7RBnPTsfT" opacity="1" fill-opacity="0" stroke="#5dfc0a" stroke-width="6" stroke-opacity="1"></use></g></g><g><use xlink:href="#c1Z8aK2n83" opacity="1" fill="#000000" fill-opacity="1"></use><g><use xlink:href="#c1Z8aK2n83" opacity="1" fill-opacity="0" stroke="#5dfc0a" stroke-width="6" stroke-opacity="1"></use></g></g><g><use xlink:href="#a14u4xTBDP" opacity="1" fill="#000000" fill-opacity="1"></use><g><use xlink:href="#a14u4xTBDP" opacity="1" fill-opacity="0" stroke="#5dfc0a" stroke-width="6" stroke-opacity="1"></use></g></g><g><use xlink:href="#d17cxrgqRo" opacity="1" fill="#000000" fill-opacity="1"></use><g><use xlink:href="#d17cxrgqRo" opacity="1" fill-opacity="0" stroke="#5dfc0a" stroke-width="6" stroke-opacity="1"></use></g></g><g><use xlink:href="#a1v2K0zNER" opacity="1" fill="#000000" fill-opacity="1"></use><g><use xlink:href="#a1v2K0zNER" opacity="1" fill-opacity="0" stroke="#5dfc0a" stroke-width="6" stroke-opacity="1"></use></g></g><g><use xlink:href="#b1iricwDi" opacity="1" fill="#000000" fill-opacity="1"></use><g><use xlink:href="#b1iricwDi" opacity="1" fill-opacity="0" stroke="#5dfc0a" stroke-width="6" stroke-opacity="1"></use></g></g><g><use xlink:href="#bOR20Eqey" opacity="1" fill="#000000" fill-opacity="1"></use><g><use xlink:href="#bOR20Eqey" opacity="1" fill-opacity="0" stroke="#5dfc0a" stroke-width="6" stroke-opacity="1"></use></g></g><g><use xlink:href="#d4KEMUDUgi" opacity="1" fill="#000000" fill-opacity="1"></use><g><use xlink:href="#d4KEMUDUgi" opacity="1" fill-opacity="0" stroke="#5dfc0a" stroke-width="6" stroke-opacity="1"></use></g></g><g><use xlink:href="#beZh97Dy6" opacity="1" fill="#000000" fill-opacity="1"></use><g><use xlink:href="#beZh97Dy6" opacity="1" fill-opacity="0" stroke="#5dfc0a" stroke-width="6" stroke-opacity="1"></use></g></g><g><use xlink:href="#c1L3810o5C" opacity="1" fill="#000000" fill-opacity="1"></use><g><use xlink:href="#c1L3810o5C" opacity="1" fill-opacity="0" stroke="#5dfc0a" stroke-width="6" stroke-opacity="1"></use></g></g><g><use xlink:href="#bEbcQr9MC" opacity="1" fill="#000000" fill-opacity="1"></use><g><use xlink:href="#bEbcQr9MC" opacity="1" fill-opacity="0" stroke="#5dfc0a" stroke-width="6" stroke-opacity="1"></use></g></g><g><use xlink:href="#b6TEe8Yr2F" opacity="1" fill="#000000" fill-opacity="1"></use><g><use xlink:href="#b6TEe8Yr2F" opacity="1" fill-opacity="0" stroke="#5dfc0a" stroke-width="6" stroke-opacity="1"></use></g></g><g><use xlink:href="#b2DVbh1SzD" opacity="1" fill="#000000" fill-opacity="1"></use><g><use xlink:href="#b2DVbh1SzD" opacity="1" fill-opacity="0" stroke="#5dfc0a" stroke-width="6" stroke-opacity="1"></use></g></g><g><use xlink:href="#c1KwCrCOD" opacity="1" fill="#000000" fill-opacity="1"></use><g><use xlink:href="#c1KwCrCOD" opacity="1" fill-opacity="0" stroke="#5dfc0a" stroke-width="6" stroke-opacity="1"></use></g></g><g><use xlink:href="#e59qIQTDcD" opacity="1" fill="#000000" fill-opacity="1"></use><g><use xlink:href="#e59qIQTDcD" opacity="1" fill-opacity="0" stroke="#5dfc0a" stroke-width="6" stroke-opacity="1"></use></g></g><g><use xlink:href="#b19tU7jRzL" opacity="1" fill="#000000" fill-opacity="1"></use><g><use xlink:href="#b19tU7jRzL" opacity="1" fill-opacity="0" stroke="#5dfc0a" stroke-width="6" stroke-opacity="1"></use></g></g><g><use xlink:href="#b3wPahfdHj" opacity="1" fill="#000000" fill-opacity="1"></use><g><use xlink:href="#b3wPahfdHj" opacity="1" fill-opacity="0" stroke="#5dfc0a" stroke-width="6" stroke-opacity="1"></use></g></g><g><use xlink:href="#btuAVRG0H" opacity="1" fill="#000000" fill-opacity="1"></use><g><use xlink:href="#btuAVRG0H" opacity="1" fill-opacity="0" stroke="#5dfc0a" stroke-width="6" stroke-opacity="1"></use></g></g><g><use xlink:href="#c2iEla3cU3" opacity="1" fill="#000000" fill-opacity="1"></use><g><use xlink:href="#c2iEla3cU3" opacity="1" fill-opacity="0" stroke="#5dfc0a" stroke-width="6" stroke-opacity="1"></use></g></g><g><use xlink:href="#aDD3AL64L" opacity="1" fill="#000000" fill-opacity="1"></use><g><use xlink:href="#aDD3AL64L" opacity="1" fill-opacity="0" stroke="#5dfc0a" stroke-width="6" stroke-opacity="1"></use></g></g><g><use xlink:href="#a2gz3qBsUH" opacity="1" fill="#000000" fill-opacity="1"></use><g><use xlink:href="#a2gz3qBsUH" opacity="1" fill-opacity="0" stroke="#5dfc0a" stroke-width="6" stroke-opacity="1"></use></g></g><g><use xlink:href="#c2zZA1BcUB" opacity="1" fill="#000000" fill-opacity="1"></use><g><use xlink:href="#c2zZA1BcUB" opacity="1" fill-opacity="0" stroke="#5dfc0a" stroke-width="6" stroke-opacity="1"></use></g></g><g><use xlink:href="#e9UTnLEkYz" opacity="1" fill="#000000" fill-opacity="1"></use><g><use xlink:href="#e9UTnLEkYz" opacity="1" fill-opacity="0" stroke="#5dfc0a" stroke-width="6" stroke-opacity="1"></use></g></g><g><use xlink:href="#b2gxd5CmP" opacity="1" fill="#000000" fill-opacity="1"></use><g><use xlink:href="#b2gxd5CmP" opacity="1" fill-opacity="0" stroke="#5dfc0a" stroke-width="6" stroke-opacity="1"></use></g></g><g><use xlink:href="#dU6VAv8pR" opacity="1" fill="#000000" fill-opacity="1"></use><g><use xlink:href="#dU6VAv8pR" opacity="1" fill-opacity="0" stroke="#5dfc0a" stroke-width="6" stroke-opacity="1"></use></g></g><g><use xlink:href="#c9EFSeZnTc" opacity="1" fill="#000000" fill-opacity="1"></use><g><use xlink:href="#c9EFSeZnTc" opacity="1" fill-opacity="0" stroke="#5dfc0a" stroke-width="6" stroke-opacity="1"></use></g></g><g><use xlink:href="#c1aIFIAVNb" opacity="1" fill="#000000" fill-opacity="1"></use><g><use xlink:href="#c1aIFIAVNb" opacity="1" fill-opacity="0" stroke="#5dfc0a" stroke-width="6" stroke-opacity="1"></use></g></g><g><use xlink:href="#e6FB18g7po" opacity="1" fill="#000000" fill-opacity="1"></use><g><use xlink:href="#e6FB18g7po" opacity="1" fill-opacity="0" stroke="#5dfc0a" stroke-width="6" stroke-opacity="1"></use></g></g><g><use xlink:href="#dzeOUIulz" opacity="1" fill="#000000" fill-opacity="1"></use><g><use xlink:href="#dzeOUIulz" opacity="1" fill-opacity="0" stroke="#5dfc0a" stroke-width="6" stroke-opacity="1"></use></g></g><g><use xlink:href="#bymDJMIkf" opacity="1" fill="#000000" fill-opacity="1"></use><g><use xlink:href="#bymDJMIkf" opacity="1" fill-opacity="0" stroke="#5dfc0a" stroke-width="6" stroke-opacity="1"></use></g></g><g><use xlink:href="#b8wjDScGBy" opacity="1" fill="#000000" fill-opacity="1"></use><g><use xlink:href="#b8wjDScGBy" opacity="1" fill-opacity="0" stroke="#5dfc0a" stroke-width="6" stroke-opacity="1"></use></g></g><g><use xlink:href="#d5nYEAa60l" opacity="1" fill="#000000" fill-opacity="1"></use><g><use xlink:href="#d5nYEAa60l" opacity="1" fill-opacity="0" stroke="#5dfc0a" stroke-width="6" stroke-opacity="1"></use></g></g><g><use xlink:href="#b8EVZsdF2" opacity="1" fill="#000000" fill-opacity="1"></use><g><use xlink:href="#b8EVZsdF2" opacity="1" fill-opacity="0" stroke="#5dfc0a" stroke-width="6" stroke-opacity="1"></use></g></g><g><use xlink:href="#cDfxR1Z" opacity="1" fill="#000000" fill-opacity="1"></use><g><use xlink:href="#cDfxR1Z" opacity="1" fill-opacity="0" stroke="#5dfc0a" stroke-width="6" stroke-opacity="1"></use></g></g><g><use xlink:href="#bcbt2TGAA" opacity="1" fill="#000000" fill-opacity="1"></use><g><use xlink:href="#bcbt2TGAA" opacity="1" fill-opacity="0" stroke="#5dfc0a" stroke-width="6" stroke-opacity="1"></use></g></g><g><use xlink:href="#g1IfwOtKP" opacity="1" fill="#000000" fill-opacity="1"></use><g><use xlink:href="#g1IfwOtKP" opacity="1" fill-opacity="0" stroke="#5dfc0a" stroke-width="6" stroke-opacity="1"></use></g></g><g><use xlink:href="#goBsgoxBg" opacity="1" fill="#000000" fill-opacity="1"></use><g><use xlink:href="#goBsgoxBg" opacity="1" fill-opacity="0" stroke="#5dfc0a" stroke-width="6" stroke-opacity="1"></use></g></g><g><use xlink:href="#dErDOLhf6" opacity="1" fill="#000000" fill-opacity="1"></use><g><use xlink:href="#dErDOLhf6" opacity="1" fill-opacity="0" stroke="#5dfc0a" stroke-width="6" stroke-opacity="1"></use></g></g><g><use xlink:href="#aCgGm8P28" opacity="1" fill="#000000" fill-opacity="1"></use><g><use xlink:href="#aCgGm8P28" opacity="1" fill-opacity="0" stroke="#5dfc0a" stroke-width="6" stroke-opacity="1"></use></g></g><g><use xlink:href="#a8SD44j5m" opacity="1" fill="#000000" fill-opacity="1"></use><g><use xlink:href="#a8SD44j5m" opacity="1" fill-opacity="0" stroke="#5dfc0a" stroke-width="6" stroke-opacity="1"></use></g></g><g><use xlink:href="#ca6TM2M47" opacity="1" fill="#000000" fill-opacity="1"></use><g><use xlink:href="#ca6TM2M47" opacity="1" fill-opacity="0" stroke="#5dfc0a" stroke-width="6" stroke-opacity="1"></use></g></g><g><use xlink:href="#c1yDjA6NW" opacity="1" fill="#000000" fill-opacity="1"></use><g><use xlink:href="#c1yDjA6NW" opacity="1" fill-opacity="0" stroke="#5dfc0a" stroke-width="6" stroke-opacity="1"></use></g></g><g><use xlink:href="#b4b0YP8VCN" opacity="1" fill="#000000" fill-opacity="1"></use><g><use xlink:href="#b4b0YP8VCN" opacity="1" fill-opacity="0" stroke="#5dfc0a" stroke-width="6" stroke-opacity="1"></use></g></g><g><use xlink:href="#a3BKePAh51" opacity="1" fill="#000000" fill-opacity="1"></use><g><use xlink:href="#a3BKePAh51" opacity="1" fill-opacity="0" stroke="#5dfc0a" stroke-width="6" stroke-opacity="1"></use></g></g><g><use xlink:href="#bhEo8LDGE" opacity="1" fill="#000000" fill-opacity="1"></use><g><use xlink:href="#bhEo8LDGE" opacity="1" fill-opacity="0" stroke="#5dfc0a" stroke-width="6" stroke-opacity="1"></use></g></g><g><use xlink:href="#acbOrGcxF" opacity="1" fill="#000000" fill-opacity="1"></use><g><use xlink:href="#acbOrGcxF" opacity="1" fill-opacity="0" stroke="#5dfc0a" stroke-width="6" stroke-opacity="1"></use></g></g><g><use xlink:href="#bErQnauG" opacity="1" fill="#000000" fill-opacity="1"></use><g><use xlink:href="#bErQnauG" opacity="1" fill-opacity="0" stroke="#5dfc0a" stroke-width="6" stroke-opacity="1"></use></g></g><g><use xlink:href="#a3M1odOFAq" opacity="1" fill="#000000" fill-opacity="1"></use><g><use xlink:href="#a3M1odOFAq" opacity="1" fill-opacity="0" stroke="#5dfc0a" stroke-width="6" stroke-opacity="1"></use></g></g><g><use xlink:href="#a32Hg0Qy7" opacity="1" fill="#000000" fill-opacity="1"></use><g><use xlink:href="#a32Hg0Qy7" opacity="1" fill-opacity="0" stroke="#5dfc0a" stroke-width="6" stroke-opacity="1"></use></g></g><g><use xlink:href="#bqsNXiaIn" opacity="1" fill="#000000" fill-opacity="1"></use><g><use xlink:href="#bqsNXiaIn" opacity="1" fill-opacity="0" stroke="#5dfc0a" stroke-width="6" stroke-opacity="1"></use></g></g><g><use xlink:href="#a3Kfw5UilC" opacity="1" fill="#000000" fill-opacity="1"></use><g><use xlink:href="#a3Kfw5UilC" opacity="1" fill-opacity="0" stroke="#5dfc0a" stroke-width="6" stroke-opacity="1"></use></g></g><g><use xlink:href="#a4I8KxoCS" opacity="1" fill="#000000" fill-opacity="1"></use><g><use xlink:href="#a4I8KxoCS" opacity="1" fill-opacity="0" stroke="#5dfc0a" stroke-width="6" stroke-opacity="1"></use></g></g><g><use xlink:href="#a13JzTLgyM" opacity="1" fill="#000000" fill-opacity="1"></use><g><use xlink:href="#a13JzTLgyM" opacity="1" fill-opacity="0" stroke="#5dfc0a" stroke-width="6" stroke-opacity="1"></use></g></g><g><use xlink:href="#e26PNjTVIM" opacity="1" fill="#000000" fill-opacity="1"></use><g><use xlink:href="#e26PNjTVIM" opacity="1" fill-opacity="0" stroke="#5dfc0a" stroke-width="6" stroke-opacity="1"></use></g></g></g></g></g></svg>